<svg width="512" height="512" viewBox="0 0 512 512" fill="none" xmlns="http://www.w3.org/2000/svg">
<g clip-path="url(#clip0)">
<rect width="512" height="512" fill="white"/>
<rect x="0.440918" y="0.440765" width="512" height="512" fill="white"/>
<circle cx="256.441" cy="256.441" r="156.354" transform="rotate(45 256.441 256.441)" fill="#171414"/>
<path d="M404.226 404.226C411.646 411.646 411.694 423.745 403.682 430.522C374.259 455.408 338.92 472.501 300.922 480.06C256.694 488.857 210.851 484.342 169.189 467.085C127.528 449.829 91.9189 420.605 66.8659 383.111C41.813 345.616 28.441 301.535 28.441 256.441C28.441 211.347 41.813 167.265 66.8659 129.771C91.9189 92.2763 127.528 63.053 169.189 45.7962C210.851 28.5394 256.694 24.0243 300.922 32.8217C338.591 40.3146 373.648 57.1782 402.917 81.7157C411.382 88.812 411.33 101.552 403.519 109.363L256.441 256.441L404.226 404.226Z" fill="#FB6502"/>
<path opacity="0.18" d="M155.992 184.595C155.992 172.278 169.325 164.58 179.992 170.739L304.56 242.658C315.227 248.816 315.227 264.212 304.56 270.371L179.992 342.29C169.325 348.449 155.992 340.751 155.992 328.434L155.992 184.595Z" fill="white"/>
<path d="M184.015 158.654C184.015 146.337 197.348 138.639 208.015 144.797L377.515 242.658C388.181 248.816 388.181 264.212 377.515 270.371L208.015 368.232C197.348 374.39 184.015 366.692 184.015 354.375L184.015 158.654Z" fill="white"/>
</g>
<defs>
<clipPath id="clip0">
<rect width="512" height="512" fill="white"/>
</clipPath>
</defs>
</svg>
