<svg width="645" height="645" viewBox="0 0 645 645" fill="none" xmlns="http://www.w3.org/2000/svg">
<circle cx="322.441" cy="322.441" r="156.354" transform="rotate(45 322.441 322.441)" fill="#171414"/>
<path d="M470.226 470.226C477.646 477.646 477.694 489.745 469.682 496.522C440.259 521.408 404.92 538.501 366.922 546.06C322.694 554.857 276.851 550.342 235.189 533.085C193.528 515.829 157.919 486.605 132.866 449.111C107.813 411.616 94.441 367.535 94.441 322.441C94.441 277.347 107.813 233.265 132.866 195.771C157.919 158.276 193.528 129.053 235.189 111.796C276.851 94.5394 322.694 90.0243 366.922 98.8217C404.591 106.315 439.648 123.178 468.917 147.716C477.382 154.812 477.33 167.552 469.519 175.363L322.441 322.441L470.226 470.226Z" fill="#FB6502"/>
<path opacity="0.18" d="M221.992 250.595C221.992 238.278 235.325 230.58 245.992 236.739L370.56 308.658C381.227 314.816 381.227 330.212 370.56 336.371L245.992 408.29C235.325 414.449 221.992 406.751 221.992 394.434L221.992 250.595Z" fill="white"/>
<path d="M250.015 224.654C250.015 212.337 263.348 204.639 274.015 210.797L443.515 308.658C454.181 314.816 454.181 330.212 443.515 336.371L274.015 434.232C263.348 440.39 250.015 432.692 250.015 420.375L250.015 224.654Z" fill="white"/>
</svg>
