<svg width="32" height="10" viewBox="0 0 32 10" fill="none" xmlns="http://www.w3.org/2000/svg">
<path d="M23.26 0.401084C22.5153 0.131869 21.7289 -0.0038777 20.937 8.42865e-05C18.38 8.42865e-05 16.573 1.29208 16.562 3.14108C16.541 4.50008 17.843 5.26609 18.827 5.72409C19.838 6.19309 20.176 6.48509 20.171 6.90109C20.166 7.54209 19.363 7.82809 18.624 7.82809C17.597 7.82809 17.04 7.68809 16.181 7.32809L15.862 7.17708L15.498 9.31308C16.123 9.56808 17.243 9.79208 18.399 9.81308C21.123 9.81308 22.899 8.53208 22.919 6.55708C22.94 5.47408 22.243 4.65208 20.758 3.97408C19.862 3.53708 19.301 3.23908 19.301 2.79108C19.301 2.39508 19.78 1.97908 20.78 1.97908C21.4436 1.96246 22.1034 2.08474 22.717 2.33808L22.962 2.44708L23.321 0.390085L23.26 0.401084ZM29.907 0.177084H27.907C27.282 0.177084 26.818 0.344084 26.542 0.964084L22.698 9.67708H25.417L25.965 8.25008L29.282 8.25508C29.365 8.58808 29.599 9.67608 29.599 9.67608H32L29.907 0.177084ZM12.88 0.0990843H15.469L13.849 9.60308H11.26L12.88 0.0940842V0.0990843ZM6.297 5.33308L6.562 6.65608L9.098 0.177084H11.843L7.759 9.66108H5.026L2.786 1.63008C2.76884 1.56337 2.73826 1.50086 2.69614 1.44636C2.65402 1.39186 2.60123 1.34651 2.541 1.31308C1.73638 0.894593 0.882829 0.577827 0 0.370084L0.031 0.171085H4.208C4.771 0.192085 5.229 0.370084 5.385 0.974084L6.297 5.33808V5.33308ZM26.703 6.30708L27.74 3.64608C27.724 3.67108 27.953 3.09908 28.083 2.73908L28.26 3.55608L28.86 6.30108H26.703V6.30708Z" fill="white"/>
</svg>
